<?xml version="1.0" encoding="UTF-8"?>
<svg xmlns="http://www.w3.org/2000/svg" width="64" height="64" viewBox="0 0 64 64">
  <!-- Bare rock/bedrock pattern - small scattered rock fragments -->
  <!-- Transparent background so it layers over the area fill -->
  <g fill="#8b7355" fill-opacity="0.6" stroke="none">
    <!-- Row 1 -->
    <ellipse cx="8" cy="6" rx="3" ry="2"/>
    <ellipse cx="28" cy="4" rx="2.5" ry="1.8"/>
    <ellipse cx="50" cy="8" rx="2" ry="1.5"/>
    <!-- Row 2 -->
    <ellipse cx="18" cy="18" rx="2.5" ry="1.8"/>
    <ellipse cx="42" cy="16" rx="3" ry="2"/>
    <!-- Row 3 -->
    <ellipse cx="4" cy="30" rx="2" ry="1.5"/>
    <ellipse cx="24" cy="28" rx="3.5" ry="2.2"/>
    <ellipse cx="54" cy="32" rx="2.5" ry="1.8"/>
    <!-- Row 4 -->
    <ellipse cx="12" cy="42" rx="2.5" ry="2"/>
    <ellipse cx="38" cy="40" rx="2" ry="1.5"/>
    <!-- Row 5 -->
    <ellipse cx="8" cy="54" rx="3" ry="2"/>
    <ellipse cx="30" cy="52" rx="2.5" ry="1.8"/>
    <ellipse cx="52" cy="56" rx="2" ry="1.5"/>
    <!-- Scattered small dots -->
    <circle cx="58" cy="20" r="1.2"/>
    <circle cx="14" cy="10" r="1"/>
    <circle cx="34" cy="46" r="1.3"/>
    <circle cx="46" cy="48" r="1"/>
    <circle cx="20" cy="56" r="1.1"/>
    <circle cx="56" cy="44" r="0.9"/>
  </g>
</svg>